HIERARCHY
ROOT Hips
{
	OFFSET 0.00000 0.00000 0.00000
	CHANNELS 6 Xposition Yposition Zposition Zrotation Yrotation Xrotation 
	JOINT LHipJoint
	{
		OFFSET 0 0 0
		CHANNELS 3 Zrotation Yrotation Xrotation
		JOINT LeftHip
		{
			OFFSET 1.62964 -1.40469 0.78906
			CHANNELS 3 Zrotation Yrotation Xrotation
			JOINT LeftKnee
			{
				OFFSET 2.29640 -6.30932 0.00000
				CHANNELS 3 Zrotation Yrotation Xrotation
				JOINT LeftAnkle
				{
					OFFSET 2.29451 -6.30412 0.00000
					CHANNELS 3 Zrotation Yrotation Xrotation
					JOINT LeftToe
					{
						OFFSET 0.03611 -0.09921 1.56387
						CHANNELS 3 Zrotation Yrotation Xrotation
						End Site
						{
							OFFSET 0.00000 -0.00000 0.80291
						}
					}
				}
			}
		}
	}
	JOINT RHipJoint
	{
		OFFSET 0 0 0
		CHANNELS 3 Zrotation Yrotation Xrotation
		JOINT RightHip
		{
			OFFSET -1.73712 -1.40469 0.78906
			CHANNELS 3 Zrotation Yrotation Xrotation
			JOINT RightKnee
			{
				OFFSET -2.28137 -6.26801 0.00000
				CHANNELS 3 Zrotation Yrotation Xrotation
				JOINT RightAnkle
				{
					OFFSET -2.28681 -6.28298 0.00000
					CHANNELS 3 Zrotation Yrotation Xrotation
					JOINT RightToe
					{
						OFFSET -0.15927 -0.43759 1.61103
						CHANNELS 3 Zrotation Yrotation Xrotation
						End Site
						{
							OFFSET -0.00000 -0.00000 0.84630
						}
					}
				}
			}
		}
	}
	JOINT lowerback
	{
		OFFSET 0 0 0
		CHANNELS 3 Zrotation Yrotation Xrotation
		JOINT Chest
		{
			OFFSET -0.04227 2.04338 -0.00225
			CHANNELS 3 Zrotation Yrotation Xrotation
			JOINT Chest2
			{
				OFFSET -0.02148 2.04482 -0.04273
				CHANNELS 3 Zrotation Yrotation Xrotation
				JOINT lowerneck
				{
					OFFSET 0 0 0
					CHANNELS 3 Zrotation Yrotation Xrotation
					JOINT Neck
					{
						OFFSET 0.09180 1.44629 0.19359
						CHANNELS 3 Zrotation Yrotation Xrotation
						JOINT Head
						{
							OFFSET 0.00887 1.40645 0.14750
							CHANNELS 3 Zrotation Yrotation Xrotation
							End Site
							{
								OFFSET -0.00669 1.50671 0.03707
							}
						}
					}
				}
				JOINT LeftCollar
				{
					OFFSET 0 0 0
					CHANNELS 3 Zrotation Yrotation Xrotation
					JOINT LeftShoulder
					{
						OFFSET 2.17674 1.86763 -0.06520
CHANNELS 3 Zrotation Xrotation Yrotation
						JOINT LeftElbow
						{
OFFSET 0 -4.657760 0.000000
CHANNELS 3 Zrotation Xrotation Yrotation
							JOINT LeftWrist
							{
OFFSET 0 -3.555390 0.000000
CHANNELS 3 Zrotation Xrotation Yrotation
								JOINT lhand
								{
									OFFSET 0 0 0
CHANNELS 3 Zrotation Xrotation Yrotation
									JOINT LFingers
									{
OFFSET 0 -0.707260 0.000000
CHANNELS 3 Zrotation Xrotation Yrotation
										End Site
										{
OFFSET 0 -0.570220 0.000000
										}
									}
								}
								JOINT LThumb
								{
OFFSET 0 0.000000 0.000000
CHANNELS 3 Zrotation Xrotation Yrotation
									End Site
									{
OFFSET 0 -0.578920 0.578920
									}
								}
							}
						}
					}
				}
				JOINT RightCollar
				{
					OFFSET 0 0 0
					CHANNELS 3 Zrotation Yrotation Xrotation
					JOINT RightShoulder
					{
						OFFSET -2.80694 1.55459 -0.32496
CHANNELS 3 Zrotation Xrotation Yrotation
						JOINT RightElbow
						{
OFFSET 0 -4.719250 -0.000000
CHANNELS 3 Zrotation Xrotation Yrotation
							JOINT RightWrist
							{
OFFSET 0 -3.569900 0.000000
CHANNELS 3 Zrotation Xrotation Yrotation
								JOINT rhand
								{
									OFFSET 0 0 0
CHANNELS 3 Zrotation Xrotation Yrotation
									JOINT RFingers
									{
OFFSET 0 -0.507760 0.000000
CHANNELS 3 Zrotation Xrotation Yrotation
										End Site
										{
OFFSET 0 -0.409370 0.000000
										}
									}
								}
								JOINT RThumb
								{
OFFSET 0 0.000000 0.000000
CHANNELS 3 Zrotation Xrotation Yrotation
									End Site
									{
OFFSET 0 -0.415620 0.415620
									}
								}
							}
						}
					}
				}
			}
		}
	}
}
MOTION
Frames: 5
Frame Time: 0.008333333333333333
9.013000 16.296100 31.724500 175.978000 -4.136500 -160.242000 0.000000 0.000000 0.000000 -23.360200 -17.372900 -15.240000 0.445600 4.283000 11.874200 0.321700 -3.053700 -10.098100 4.199700 -12.421600 -37.240100 0.000000 0.000000 0.000000 16.006100 12.767500 -13.937700 -0.223800 -3.045000 8.404100 -1.180700 -3.121600 -21.867700 -2.205700 9.282000 -26.681500 -9.209000 -2.781100 -24.434200 -1.385700 -1.436800 -1.141400 3.151600 -1.365200 12.610600 -1.666200 -3.179500 0.079400 5.773000 -4.797700 -16.338000 2.290900 -3.072900 -4.718600 0.000000 -0.000000 0.000000 3.806200 -5.355600 -21.746700 10.709600 -17.841800 1.685900 23.557500 -5.417800 11.751700 0.000000 0.000000 0.000000 -7.125000 0.000000 0.000000 -2.523000 17.201100 -1.665700 0.000000 -0.000000 0.000000 2.309300 -1.267700 12.055700 -15.323300 -24.594600 -3.359400 -12.684700 12.093600 55.193600 0.000000 0.000000 0.000000 7.125000 0.000000 -0.000000 75.394200 76.466500 -61.551800
9.010840 16.289441 31.732059 175.825028 -3.942046 -160.208706 0.000000 0.000000 0.000000 -23.550155 -17.085763 -15.495823 0.456308 4.333391 12.016554 0.316931 -3.231147 -10.013246 4.168566 -12.381377 -37.094867 0.000000 0.000000 0.000000 15.732821 12.809792 -14.168507 -0.234238 -3.114917 8.598914 -1.435263 -2.117296 -23.478401 -1.576267 7.904536 -22.433838 -9.351893 -2.720451 -24.354565 -1.449408 -1.329720 -1.176404 3.200281 -1.321558 12.513058 -1.705253 -3.170322 0.137349 5.777049 -4.782583 -16.359596 2.300078 -3.062912 -4.734347 0.000000 0.000000 0.000000 3.754010 -5.188771 -21.738871 10.299186 -17.205978 1.562533 24.402263 -3.692100 10.888940 0.000000 0.000000 0.000000 -7.125000 0.000000 0.000000 -1.888528 18.056391 -1.212184 0.000000 0.000000 0.000000 2.245862 -1.059029 12.188335 -15.290456 -24.549158 -3.345723 -13.550339 12.614063 55.632269 0.000000 0.000000 0.000000 7.125000 0.000000 0.000000 77.170920 76.840921 -63.678735
9.008521 16.283342 31.739377 175.629674 -3.719604 -160.161818 0.000000 0.000000 0.000000 -23.791128 -16.978791 -15.647928 0.461338 4.356753 12.082459 0.318879 -3.261695 -10.043863 4.218997 -12.446151 -37.329315 0.000000 0.000000 0.000000 15.375896 13.258155 -14.928693 -0.318885 -3.620812 10.013298 -1.790424 -1.260531 -25.757703 -1.124919 6.713793 -18.879247 -9.520696 -2.683713 -24.297000 -1.507998 -1.245110 -1.204610 3.260397 -1.290791 12.438946 -1.788207 -3.148109 0.163472 5.788216 -4.754751 -16.391508 2.317653 -3.046127 -4.747135 0.000000 0.000000 0.000000 3.696222 -5.014345 -21.613572 9.900128 -16.582711 1.446683 25.148108 -1.891552 10.222098 0.000000 0.000000 0.000000 -7.125000 0.000000 0.000000 -1.328584 18.715844 -0.833757 0.000000 0.000000 0.000000 2.180504 -0.848678 12.271072 -15.297356 -24.558734 -3.348598 -14.366000 13.195222 56.047347 0.000000 0.000000 0.000000 7.125000 0.000000 0.000000 78.977468 77.175518 -65.805031
8.993520 16.267311 31.703857 175.036593 -3.141038 -160.514740 0.000000 0.000000 0.000000 -24.922519 -16.747072 -14.726952 0.424527 4.179750 11.583107 0.327404 -2.965574 -10.195968 4.210116 -12.434821 -37.288154 0.000000 0.000000 0.000000 14.669727 12.880210 -14.711257 -0.338681 -3.739794 10.345902 -2.244993 0.247314 -28.285067 -0.726797 5.398775 -15.061511 -9.959533 -2.595128 -24.494160 -1.755022 -0.935768 -0.982104 3.324254 -1.186510 12.771521 -1.717805 -3.132098 0.349081 5.750119 -4.762470 -16.779358 2.310818 -3.071859 -4.900782 0.000000 0.000000 0.000000 3.709081 -4.896606 -21.509302 9.494027 -15.943598 1.333173 25.816298 -0.238455 9.642752 0.000000 0.000000 0.000000 -7.125000 0.000000 0.000000 -0.824283 19.292638 -0.507265 0.000000 0.000000 0.000000 2.193390 -0.769623 12.153586 -15.243061 -24.483636 -3.326057 -15.167985 13.956898 56.443102 0.000000 0.000000 0.000000 7.125000 0.000000 0.000000 80.819999 77.485191 -67.952791
8.991256 16.273526 31.700246 175.339200 -2.881077 -160.440257 0.000000 0.000000 0.000000 -24.592343 -16.646730 -14.814427 0.417290 4.146270 11.488520 0.329661 -2.774989 -10.243275 4.118871 -12.316418 -36.861426 0.000000 0.000000 0.000000 14.975960 13.166347 -14.718720 -0.333585 -3.711828 10.267340 -1.774962 -1.172965 -25.465919 -2.054016 8.418690 -24.335329 -9.582372 -2.417599 -24.683110 -1.773252 -0.781153 -0.972481 3.140768 -1.095355 12.860488 -1.627198 -3.147338 0.388642 5.745126 -4.791854 -16.907260 2.300346 -3.099104 -4.948279 0.000000 0.000000 0.000000 3.910788 -4.810958 -21.967435 9.085743 -15.296202 1.223300 26.492229 0.789453 8.894805 0.000000 0.000000 0.000000 -7.125000 0.000000 0.000000 -0.301600 20.062551 -0.182944 0.000000 0.000000 0.000000 2.346523 -0.778515 11.873508 -15.140927 -24.341980 -3.283836 -15.952563 14.827012 56.831832 0.000000 0.000000 0.000000 7.125000 0.000000 0.000000 82.745424 77.768837 -70.167614
